<?xml version="1.0" encoding="utf-8"?>
<!-- Generator: Adobe Illustrator 17.1.0, SVG Export Plug-In . SVG Version: 6.00 Build 0)  -->
<!DOCTYPE svg PUBLIC "-//W3C//DTD SVG 1.1//EN" "http://www.w3.org/Graphics/SVG/1.1/DTD/svg11.dtd">
<svg version="1.1" id="Layer_1" xmlns="http://www.w3.org/2000/svg" xmlns:xlink="http://www.w3.org/1999/xlink" x="0px" y="0px"
	 width="96px" height="119px" viewBox="0 0 96 119" enable-background="new 0 0 96 119" xml:space="preserve">
<g>
	<path fill="#039BD3" d="M14.5,98.3c1.5,0,3.1-0.2,4.6-0.2c0-1.1,0-2.5,0-3.6c-1.5,0-3.1,0-4.6,0.2C14.5,95.9,14.5,97.2,14.5,98.3z"
		/>
	<path fill="#039BD3" d="M8.7,98.7c1.5,0,3-0.2,4.6-0.2c0-1.3,0-2.5,0-3.8c-1.5,0-3,0.2-4.6,0.2C8.7,96.2,8.7,97.4,8.7,98.7z"/>
	<path fill="#039BD3" d="M3,99c1.5-0.2,3.1-0.2,4.6-0.3c0-1.3,0-2.5,0-3.8c-1.5,0-3.1,0.2-4.6,0.3C3,96.5,3,97.7,3,99z"/>
	<path fill="#039BD3" d="M49.2,99c1.5,0.2,3.1,0.3,4.6,0.3c0-1.3,0-2.5,0-3.8c-1.5,0-3.1-0.2-4.6-0.2C49.2,96.5,49.2,97.8,49.2,99z"
		/>
	<path fill="#039BD3" d="M26,98.2c1.5,0,3.1,0,4.6,0c0-1.1,0-2.5,0-3.6c-1.5,0-3.1,0-4.6,0C26,95.7,26,96.9,26,98.2z"/>
	<path fill="#039BD3" d="M20.2,98.2c1.5,0,3.1,0,4.6,0c0-1.1,0-2.5,0-3.6c-1.5,0-3.1,0-4.6,0C20.2,95.7,20.2,97,20.2,98.2z"/>
	<path fill="#039BD3" d="M72,101.8c1.5,0.2,3,0.5,4.6,0.8c0-1.3,0-2.8,0-4.1c-1.5-0.2-3-0.5-4.6-0.7C72,99,72,100.5,72,101.8z"/>
	<path fill="#039BD3" d="M3,37.1c1.5,0,3.1,0.2,4.6,0.2c0-1.3,0-2.5,0-3.8c-1.5,0-3.1-0.2-4.6-0.2C3,34.6,3,35.9,3,37.1z"/>
	<path fill="#039BD3" d="M14.5,37.4c1.5,0,3.1,0,4.6,0c0-1.1,0-2.5,0-3.6c-1.5,0-3.1,0-4.6-0.2C14.5,34.9,14.5,36.2,14.5,37.4z"/>
	<path fill="#039BD3" d="M24.8,61.9c-1.5,0-3.1,0-4.6,0c0,1.1,0,2.5,0,3.6c1.5,0,3.1,0,4.6,0C24.8,64.3,24.8,63,24.8,61.9z"/>
	<path fill="#039BD3" d="M14.5,65.7c1.5,0,3.1,0,4.6,0c0-1.1,0-2.5,0-3.6c-1.5,0-3.1,0-4.6,0C14.5,63.2,14.5,64.3,14.5,65.7z"/>
	<path fill="#039BD3" d="M83.3,103.8c1.5,0.3,3,0.7,4.4,1c0-1.5,0-2.8,0-4.3c-1.5-0.3-3-0.5-4.4-0.8C83.3,101,83.3,102.3,83.3,103.8
		z"/>
	<path fill="#039BD3" d="M87.9,13.4c-1.5,0.3-3,0.7-4.4,1c0,1.5,0,2.8,0,4.3c1.5-0.3,3-0.5,4.4-0.8C87.9,16.2,87.9,14.9,87.9,13.4z"
		/>
	<path fill="#039BD3" d="M77.7,102.6c1.5,0.3,3,0.5,4.4,0.8c0-1.3,0-2.8,0-4.1c-1.5-0.3-3-0.5-4.4-0.8
		C77.7,100,77.7,101.3,77.7,102.6z"/>
	<path fill="#039BD3" d="M76.6,15.6c-1.5,0.3-3,0.5-4.6,0.8c0,1.3,0,2.6,0,3.9c1.5-0.2,3-0.5,4.6-0.7C76.6,18.3,76.6,16.9,76.6,15.6
		z"/>
	<path fill="#039BD3" d="M82.2,14.6c-1.5,0.3-3,0.5-4.4,0.8c0,1.3,0,2.8,0,4.1c1.5-0.2,3-0.5,4.4-0.8C82.2,17.4,82.2,15.9,82.2,14.6
		z"/>
	<path fill="#039BD3" d="M24.8,19.8c-1.5,0-3.1,0-4.6,0c0,1.1,0,2.5,0,3.6c1.5,0,3.1,0,4.6,0C24.8,22.3,24.8,21.1,24.8,19.8z"/>
	<path fill="#039BD3" d="M30.6,19.8c-1.5,0-3.1,0-4.6,0c0,1.1,0,2.5,0,3.6c1.5,0,3.1,0,4.6,0C30.6,22.3,30.6,21.1,30.6,19.8z"/>
	<path fill="#039BD3" d="M14.5,103.1c1.5,0,3.1-0.2,4.6-0.2c0-1.1,0-2.5,0-3.6c-1.5,0-3.1,0-4.6,0.2
		C14.5,100.6,14.5,101.8,14.5,103.1z"/>
	<path fill="#039BD3" d="M26,102.8c1.5,0,3.1,0,4.6,0c0-1.1,0-2.5,0-3.6c-1.5,0-3.1,0-4.6,0C26,100.3,26,101.6,26,102.8z"/>
	<path fill="#039BD3" d="M72,106.9c1.5,0.3,3,0.5,4.6,0.8c0-1.3,0-2.8,0-4.1c-1.5-0.3-3-0.5-4.6-0.8C72,104.1,72,105.6,72,106.9z"/>
	<path fill="#039BD3" d="M49.2,103.9c1.5,0.2,3.1,0.3,4.6,0.5c0-1.3,0-2.5,0-3.8c-1.5-0.3-3.1-0.5-4.6-0.5
		C49.2,101.3,49.2,102.6,49.2,103.9z"/>
	<path fill="#039BD3" d="M14.5,56.1c1.5,0,3.1,0,4.6,0c0-1.1,0-2.5,0-3.6c-1.5,0-3.1,0-4.6,0C14.5,53.7,14.5,55,14.5,56.1z"/>
	<path fill="#039BD3" d="M24.8,52.5c-1.5,0-3.1,0-4.6,0c0,1.1,0,2.5,0,3.6c1.5,0,3.1,0,4.6,0C24.8,55,24.8,53.8,24.8,52.5z"/>
	<path fill="#039BD3" d="M87.9,8c-1.5,0.3-3,0.7-4.4,1c0,1.5,0,2.8,0,4.3c1.5-0.3,3-0.7,4.4-1C87.9,10.8,87.9,9.5,87.9,8z"/>
	<path fill="#039BD3" d="M76.6,10.5c-1.5,0.3-3,0.5-4.6,0.8c0,1.3,0,2.6,0,3.9c1.5-0.2,3-0.5,4.6-0.8C76.6,13.1,76.6,11.8,76.6,10.5
		z"/>
	<path fill="#039BD3" d="M30.6,15.2c-1.5,0-3.1,0-4.6,0c0,1.1,0,2.5,0,3.6c1.5,0,3.1,0,4.6,0C30.6,17.7,30.6,16.4,30.6,15.2z"/>
	<path fill="#039BD3" d="M24.8,43.1c-1.5,0-3.1,0-4.6,0c0,1.1,0,2.5,0,3.6c1.5,0,3.1,0,4.6,0C24.8,45.6,24.8,44.5,24.8,43.1z"/>
	<path fill="#039BD3" d="M8.7,46.8c1.5,0,3,0,4.6,0c0-1.3,0-2.5,0-3.8c-1.5,0-3,0-4.6-0.2C8.7,44.3,8.7,45.4,8.7,46.8z"/>
	<path fill="#039BD3" d="M3,27.5c1.5,0.2,3.1,0.2,4.6,0.2c0-1.3,0-2.5,0-3.8c-1.5,0-3.1-0.2-4.6-0.3C3,25.1,3,26.4,3,27.5z"/>
	<path fill="#039BD3" d="M14.5,28c1.5,0,3.1,0,4.6,0.2c0-1.1,0-2.5,0-3.6c-1.5,0-3.1,0-4.6-0.2C14.5,25.6,14.5,26.9,14.5,28z"/>
	<path fill="#039BD3" d="M8.7,27.9c1.5,0,3,0.2,4.6,0.2c0-1.3,0-2.5,0-3.8c-1.5,0-3-0.2-4.6-0.2C8.7,25.4,8.7,26.7,8.7,27.9z"/>
	<path fill="#039BD3" d="M8.7,32.6c1.5,0,3,0.2,4.6,0.2c0-1.3,0-2.5,0-3.8c-1.5,0-3-0.2-4.6-0.2C8.7,30.2,8.7,31.3,8.7,32.6z"/>
	<path fill="#039BD3" d="M8.7,89.1c1.5,0,3-0.2,4.6-0.2c0-1.3,0-2.5,0-3.8c-1.5,0-3,0.2-4.6,0.2C8.7,86.7,8.7,88,8.7,89.1z"/>
	<path fill="#039BD3" d="M14.5,89c1.5,0,3.1,0,4.6-0.2c0-1.1,0-2.5,0-3.6c-1.5,0-3.1,0-4.6,0.2C14.5,86.5,14.5,87.8,14.5,89z"/>
	<path fill="#039BD3" d="M8.7,70.3c1.5,0,3,0,4.6,0c0-1.3,0-2.5,0-3.8c-1.5,0-3,0-4.6,0C8.7,67.8,8.7,69.1,8.7,70.3z"/>
	<path fill="#039BD3" d="M14.5,70.3c1.5,0,3.1,0,4.6,0c0-1.1,0-2.5,0-3.6c-1.5,0-3.1,0-4.6,0C14.5,67.8,14.5,69.1,14.5,70.3z"/>
	<path fill="#039BD3" d="M3,70.4c1.5,0,3.1,0,4.6-0.2c0-1.3,0-2.5,0-3.8c-1.5,0-3.1,0-4.6,0C3,68,3,69.1,3,70.4z"/>
	<path fill="#039BD3" d="M14.5,51.5c1.5,0,3.1,0,4.6,0c0-1.1,0-2.5,0-3.6c-1.5,0-3.1,0-4.6,0C14.5,49.1,14.5,50.2,14.5,51.5z"/>
	<path fill="#039BD3" d="M8.7,84.5c1.5,0,3-0.2,4.6-0.2c0-1.3,0-2.5,0-3.8c-1.5,0-3,0-4.6,0.2C8.7,81.9,8.7,83.2,8.7,84.5z"/>
	<path fill="#039BD3" d="M8.7,51.5c1.5,0,3,0,4.6,0c0-1.3,0-2.5,0-3.8c-1.5,0-3,0-4.6,0C8.7,48.9,8.7,50.2,8.7,51.5z"/>
	<path fill="#039BD3" d="M3,51.4c1.5,0,3.1,0,4.6,0c0-1.3,0-2.5,0-3.8c-1.5,0-3.1,0-4.6-0.2C3,48.9,3,50,3,51.4z"/>
	<path fill="#039BD3" d="M3,94.2c1.5-0.2,3.1-0.2,4.6-0.3c0-1.3,0-2.5,0-3.8c-1.5,0.2-3.1,0.3-4.6,0.3C3,91.8,3,92.9,3,94.2z"/>
	<path fill="#039BD3" d="M14.5,93.7c1.5,0,3.1-0.2,4.6-0.2c0-1.1,0-2.5,0-3.6c-1.5,0-3.1,0-4.6,0.2C14.5,91.3,14.5,92.4,14.5,93.7z"
		/>
	<path fill="#039BD3" d="M8.7,75c1.5,0,3,0,4.6-0.2c0-1.3,0-2.5,0-3.8c-1.5,0-3,0-4.6,0C8.7,72.6,8.7,73.9,8.7,75z"/>
	<path fill="#039BD3" d="M24.8,71.2c-1.5,0-3.1,0-4.6,0c0,1.1,0,2.5,0,3.6c1.5,0,3.1,0,4.6,0C24.8,73.7,24.8,72.4,24.8,71.2z"/>
	<path fill="#039BD3" d="M3,75.2c1.5,0,3.1-0.2,4.6-0.2c0-1.3,0-2.5,0-3.8c-1.5,0-3.1,0-4.6,0.2C3,72.7,3,73.9,3,75.2z"/>
	<path fill="#039BD3" d="M24.8,75.8c-1.5,0-3.1,0-4.6,0c0,1.1,0,2.5,0,3.6c1.5,0,3.1,0,4.6,0C24.8,78.3,24.8,77,24.8,75.8z"/>
	<path fill="#039BD3" d="M8.7,79.8c1.5,0,3,0,4.6-0.2c0-1.3,0-2.5,0-3.8c-1.5,0-3,0-4.6,0.2C8.7,77.3,8.7,78.5,8.7,79.8z"/>
	<path fill="#039BD3" d="M14.5,79.6c1.5,0,3.1,0,4.6,0c0-1.1,0-2.5,0-3.6c-1.5,0-3.1,0-4.6,0C14.5,77.2,14.5,78.5,14.5,79.6z"/>
	<path fill="#039BD3" d="M43.4,108.7c1.5,0.2,3.1,0.2,4.6,0.3c0-1.5,0-2.8,0-4.3c-1.5-0.2-3.1-0.3-4.6-0.3
		C43.4,105.7,43.4,107.2,43.4,108.7z"/>
	<path fill="#039BD3" d="M24.8,10.1c-1.5,0-3.1,0-4.6,0c0,1.3,0,2.8,0,4.1c1.5,0,3.1,0,4.6,0C24.8,12.9,24.8,11.4,24.8,10.1z"/>
	<path fill="#039BD3" d="M77.7,113.6c1.5,0.3,3,0.7,4.4,1c0-1.6,0-3.1,0-4.8c-1.5-0.3-3-0.7-4.4-1C77.7,110.5,77.7,112.1,77.7,113.6
		z"/>
	<path fill="#039BD3" d="M30.6,10c-1.5,0-3.1,0-4.6,0c0,1.3,0,2.8,0,4.1c1.5,0,3.1,0,4.6,0C30.6,12.8,30.6,11.4,30.6,10z"/>
	<path fill="#039BD3" d="M37.7,108.2c1.5,0,3.1,0.2,4.6,0.3c0-1.5,0-2.8,0-4.3c-1.5-0.2-3.1-0.2-4.6-0.3
		C37.7,105.4,37.7,106.9,37.7,108.2z"/>
	<path fill="#039BD3" d="M31.9,108c1.5,0,3.1,0.2,4.6,0.2c0-1.5,0-2.8,0-4.3c-1.5,0-3.1-0.2-4.6-0.2C31.9,105.2,31.9,106.7,31.9,108
		z"/>
	<path fill="#039BD3" d="M72,112.5c1.5,0.3,3,0.7,4.6,1c0-1.5,0-3.1,0-4.6c-1.5-0.3-3-0.7-4.6-0.8C72,109.3,72,111,72,112.5z"/>
	<path fill="#039BD3" d="M42.3,9.5c-1.5,0.2-3.1,0.2-4.6,0.3c0,1.5,0,2.8,0,4.3c1.5,0,3.1-0.2,4.6-0.3C42.3,12.3,42.3,11,42.3,9.5z"
		/>
	<path fill="#039BD3" d="M82.2,3.4c-1.5,0.3-3,0.7-4.4,1c0,1.5,0,3.1,0,4.6c1.5-0.3,3-0.7,4.4-1C82.2,6.5,82.2,5,82.2,3.4z"/>
	<path fill="#039BD3" d="M76.6,4.7C75.1,5,73.5,5.4,72,5.5c0,1.5,0,3,0,4.6c1.5-0.3,3-0.5,4.6-0.8C76.6,7.8,76.6,6.2,76.6,4.7z"/>
	<path fill="#039BD3" d="M70.8,5.9c-1.5,0.3-3,0.5-4.4,0.8c0,1.5,0,3,0,4.4c1.5-0.2,3-0.5,4.4-0.7C70.8,8.8,70.8,7.3,70.8,5.9z"/>
	<path fill="#039BD3" d="M59.5,7.7c-1.5,0.2-3.1,0.5-4.6,0.7c0,1.5,0,3,0,4.3c1.5-0.2,3.1-0.3,4.6-0.5C59.5,10.6,59.5,9.1,59.5,7.7z
		"/>
	<path fill="#039BD3" d="M3,41.8c1.5,0,3.1,0.2,4.6,0.2c0-1.3,0-2.5,0-3.8c-1.5,0-3.1-0.2-4.6-0.2C3,39.4,3,40.7,3,41.8z"/>
	<path fill="#039BD3" d="M53.8,8.5c-1.5,0.2-3.1,0.3-4.6,0.5c0,1.5,0,2.8,0,4.3c1.5-0.2,3.1-0.3,4.6-0.5C53.8,11.3,53.8,10,53.8,8.5
		z"/>
	<path fill="#039BD3" d="M48,9c-1.5,0.2-3.1,0.3-4.6,0.3c0,1.5,0,2.8,0,4.3c1.5-0.2,3.1-0.2,4.6-0.3C48,11.9,48,10.5,48,9z"/>
	<path fill="#039BD3" d="M24.8,38.5c-1.5,0-3.1,0-4.6,0c0,1.1,0,2.5,0,3.6c1.5,0,3.1,0,4.6,0C24.8,41,24.8,39.7,24.8,38.5z"/>
	<path fill="#039BD3" d="M14.5,42.2c1.5,0,3.1,0,4.6,0c0-1.1,0-2.5,0-3.6c-1.5,0-3.1,0-4.6,0C14.5,39.7,14.5,40.8,14.5,42.2z"/>
	<path fill="#039BD3" d="M26,108c1.5,0,3.1,0,4.6,0c0-1.3,0-2.8,0-4.1c-1.5,0-3.1,0-4.6,0C26,105.2,26,106.6,26,108z"/>
	<path fill="#039BD3" d="M8.7,60.9c1.5,0,3,0,4.6,0c0-1.3,0-2.5,0-3.8c-1.5,0-3,0-4.6,0C8.7,58.4,8.7,59.6,8.7,60.9z"/>
	<path fill="#039BD3" d="M24.8,57.1c-1.5,0-3.1,0-4.6,0c0,1.3,0,2.5,0,3.8c1.5,0,3.1,0,4.6,0C24.8,59.6,24.8,58.4,24.8,57.1z"/>
	<path fill="#039BD3" d="M54.9,109.7c1.5,0.2,3.1,0.3,4.6,0.7c0-1.5,0-3,0-4.4c-1.5-0.2-3.1-0.3-4.6-0.5
		C54.9,106.9,54.9,108.4,54.9,109.7z"/>
	<path fill="#039BD3" d="M60.7,110.5c1.5,0.2,3.1,0.5,4.6,0.7c0-1.5,0-3,0-4.4c-1.5-0.2-3-0.5-4.6-0.7
		C60.7,107.5,60.7,109,60.7,110.5z"/>
	<path fill="#039BD3" d="M93.5,79.1c0-0.3,0-0.8,0-1.1c0-1.6-0.2-3.1-0.5-4.4c-0.2-0.3-0.2-0.8-0.3-1.1c-0.2-0.8-0.5-1.5-0.7-2.1
		c-0.3-0.8-0.8-1.6-1.1-2.3c-0.3-0.5-0.7-1-0.7-1l-2.3-0.2c0,0-3-0.2-4.4-0.2c0-1.5,0-4.3,0-4.3v-0.8c0,0-0.7-0.3-1.8-0.8
		c-1.3-0.5-2.6-0.8-3.9-1.1c-0.3-0.2-0.8-0.2-1.1-0.2c-0.8-0.2-1.5-0.3-2.3-0.3c0-0.7,0-1.5,0-2.1c0-0.3,0-0.7,0-1.1l0,0
		c0.7-0.2,1.5-0.5,2.3-0.8c0.3-0.2,0.8-0.3,1.1-0.5c0.5-0.2,1.1-0.5,1.8-0.7c1-0.3,1.8-0.8,2.8-1.3c0.3-0.2,0.8-0.5,1.1-0.8v-0.2
		c0.2,0,0.2,0,0.3,0c0.3-0.3,0.8-0.7,1.1-1c0.2-0.2,0.2-0.2,0.3-0.3c1-1,2-2,2.8-3.1c0.5-0.7,0.8-1.3,1.1-2.1c0-0.2,0.2-0.2,0.2-0.3
		c0.7-1.3,1-2.8,1.3-4.4c0-0.3,0.2-0.8,0.2-1.1c0-0.8,0.2-1.6,0.2-2.5c0-0.7,0-1.3,0-1.8c0-0.3,0-0.8-0.2-1.1c-0.2-1.5-0.5-3-1-4.3
		v-0.2c-0.2-0.3-0.3-0.7-0.3-1c-0.2,0-0.2,0-0.3,0c0-0.2,0-0.3,0-0.5c-0.3-0.7-0.7-1.1-1.1-1.8c-0.5-0.5-1-1.1-1.5-1.6
		c-0.2-0.2-0.3-0.3-0.5-0.5c-0.2-0.2-0.5-0.3-0.7-0.5c-0.5-0.3-1.1-0.7-1.6-0.8c-0.3-0.2-0.8-0.3-1.1-0.5c-1.1-0.3-2.3-0.7-3.8-0.8
		c-0.3,0-0.5,0-0.8-0.2c-0.3,0-0.8,0-1.1,0s-0.7,0-1,0s-0.7,0-1.1,0c-1.1,0.3-2,0.5-2.8,0.5c-0.3,0-0.8,0-1.1,0.2c0-0.3,0-0.7,0-1
		c-1.5,0.2-3,0.3-4.4,0.7c0-1.3,0-2.6,0-3.9c1.5-0.2,3-0.5,4.4-0.7l0,0c0-0.3,0-0.7,0-1c0-1.3,0-2.6,0-3.9c-1.5,0.3-3,0.5-4.4,0.7
		c-0.3,0-0.8,0.2-1.1,0.2c-1.5,0.2-3,0.5-4.6,0.7c-0.3,0-0.8,0.2-1.1,0.2c-1.5,0.2-3.1,0.3-4.6,0.5c0,1.3,0,2.5,0,3.8
		c0,0.3,0,0.7,0,1c0,1.3,0,2.5,0,3.8c0,0.3,0,0.7,0,1c-0.3,0-0.8,0-1.1,0.2c-1.5,0.2-7.6,0.3-8.9,0.3c0-1.1,0-2.6,0-3.9
		c0.7,0,2.8,0,4.3-0.2c0-0.3,0-0.3,0-0.7c0-0.3,0-0.7,0-1c0-1.3,0-2.5,0-3.8c-0.3,0-0.8,0-1.1,0.2c-1.5,0.2-3.1,0.2-4.6,0.3
		c-0.3,0-0.8,0-1.1,0c-1.6,0-3.1,0-4.6,0c-0.3,0-0.8,0-1.1,0c-1.5,0-3.1,0.2-4.6,0.2c0,1.1,0,2.5,0,3.6c0,0.3,0,0.7,0,1
		c0,1.1,0,2.5,0,3.6c0,0.3,0,0.7,0,1c-0.3,0-0.8,0-1.1,0c-0.2,0-0.5,0-0.7,0c-1.3,0-2.6,0-3.9,0c-0.3,0-0.8,0-1.1,0
		c-1.5,0-3.1,0-4.6,0c0,1.1,0,2.5,0,3.6c0,0.3,0,0.7,0,1c1.5,0,3.1,0.2,4.6,0.2c0,1.1,0,2.5,0,3.6c-1.5,0-3.1,0-4.6-0.2
		c0,0.3,0,0.7,0,1c0,1.1,0,2.5,0,3.6c1.5,0,3.1,0,4.6,0c0.3,0,0.8,0,1.1,0c0,0.3,0,0.7,0,1c0,1.1,0,2.5,0,3.6c0,0.3,0,0.7,0,1
		c0,1.1,0,2.5,0,3.6c0,0.3,0,0.7,0,1c0,1.1,0,2.5,0,3.6c0,0.3,0,0.7,0,1c1.5,0,3,0,4.4,0c0,1.1,0,2.5,0,3.6c-1.5,0-3,0-4.4,0l0,0
		c0,0.3,0,0.7,0,1c0,1.3,0,2.5,0,3.8c0,0.3,0,0.7,0,1l0,0c1.5,0,3,0,4.4,0c0,1.1,0,2.5,0,3.6c-1.5,0-3,0-4.4,0c0,0.3,0,0.7,0,1
		c0,1.1,0,2.5,0,3.6c0,0.3,0,0.7,0,1c0,1.1,0,2.5,0,3.6c0,0.3,0,0.7,0,1c0,1.1,0,2.5,0,3.6c0,0.3,0,0.7,0,1c-0.3,0-0.8,0-1.1,0
		c-1.5,0-3.1,0-4.6,0c0,1.1,0,2.5,0,3.6c0,0.3,0,0.7,0,1c0,1.1,0,2.5,0,3.6c0,0.3,0,0.7,0,1c0,0,0,0,0,0.2c1.5,0,3,0,4.4-0.2
		c0,1.1,0,2.5,0,3.6c0,0,0,0,0.2,0c0.3,0,0.8,0,1.1,0c1.3,0,2.6,0,3.9,0c0.2,0,0.5,0,0.7,0c0.3,0,0.8,0,1.1,0c0,0.3,0,0.7,0,1
		c0,1.1,0,2.5,0,3.6c0,0.3,0,0.7,0,1c0,1.1,0,2.5,0,3.6c1.5,0,3.1,0.2,4.6,0.2c0.3,0,0.8,0,1.1,0c1.5,0,3.1,0.2,4.6,0.2
		c0.3,0,0.8,0,1.1,0c0,0,0,0,0.2,0c0-1.1,0-2.5,0-3.6c1.5,0.2,3,0.3,4.4,0.3v-0.2c0-0.3,0-0.7,0-1c0-1.3,0-2.5,0-3.8
		c0-0.3,0-0.7,0-1c0.3,0,0.8,0,1.1,0c1.5,0.2,3.1,0.2,4.6,0.3c0.3,0,0.8,0,1.1,0.2c0,0.3,0,0.7,0,1c0,1.3,0,2.5,0,3.8
		c0,0.3,0,0.7,0,1c0,1.3,0,2.5,0,3.8c1.5,0.2,3.1,0.3,4.6,0.5c0.3,0,0.8,0.2,1.1,0.2c1.5,0.2,3.1,0.3,4.6,0.7c0.3,0,0.8,0.2,1.1,0.2
		c1.5,0.2,3,0.5,4.4,0.7c0-1.3,0-2.6,0-3.9c0-0.3,0-0.7,0-1c0-1.3,0-2.6,0-3.9c0-0.3,0-0.7,0-1c0.3,0,0.8,0,1.1,0.2
		c1.6,0.2,3.1,0.2,4.6,0.2c0.3,0,0.8,0,1.1,0c0.5,0,1,0,1.6-0.2c1-0.2,2-0.3,3-0.7c0.3-0.2,0.8-0.2,1.1-0.3c1-0.3,1.8-0.7,2.6-1.1
		c0.5-0.3,1-0.5,1.5-0.8l0,0c0.2-0.2,0.2-0.2,0.3-0.3c0.3-0.3,0.8-0.7,1.1-1c0.8-0.8,1.5-1.6,2-2.5c0.2-0.3,0.3-0.7,0.7-1.1
		c0.2-0.3,0.3-0.7,0.5-1c0.3-1,0.7-2,0.8-3.1c0-0.3,0.2-0.8,0.2-1.1c0.2-1.3,0.3-2.8,0.3-4.3C93.5,79.3,93.5,79.3,93.5,79.1
		C93.5,79.3,93.5,79.1,93.5,79.1z M83.5,29.5c1.5-0.2,3-0.5,4.4-0.7c0,1.5,0,3,0,4.4c-1.5,0.2-3,0.3-4.4,0.5
		C83.5,32.5,83.5,31,83.5,29.5z M83.5,40.5c1.5-0.2,3-0.3,4.4-0.3c0,1.5,0,3,0,4.4c-1.5,0.2-3,0.2-4.4,0.3
		C83.5,43.3,83.5,41.8,83.5,40.5z M37.7,28.9c1.5,0,3.1-0.2,4.6-0.2c0,1.3,0,2.5,0,3.8c-1.5,0-3.1,0.2-4.6,0.2
		C37.7,31.3,37.7,30,37.7,28.9z M40.5,43.1c0,1.1,0,2.5,0,3.6c-1.5,0-3.1,0-4.6,0c0-1.1,0-2.5,0-3.6C37.5,43.1,39,43.1,40.5,43.1z
		 M31.9,29c1.5,0,3-0.2,4.6-0.2c0,1.3,0,2.5,0,3.8c-1.5,0-3,0.2-4.6,0.2C31.9,31.5,31.9,30.3,31.9,29z M29.4,42.2c0-1.1,0-2.5,0-3.6
		c1.5,0,3.1,0,4.6,0c0,1.1,0,2.5,0,3.6C32.6,42.2,30.9,42.2,29.4,42.2z M30.8,88.8c-1.5,0-3.1,0-4.6,0.2c0-1.3,0-2.5,0-3.8
		c1.5,0,3.1,0,4.6-0.2C30.8,86.3,30.8,87.7,30.8,88.8z M35.4,79.5c-1.5,0-3.1,0-4.6,0c0-1.1,0-2.5,0-3.6c1.5,0,3.1,0,4.6,0
		C35.4,77,35.4,78.3,35.4,79.5z M35.4,74.9c-1.5,0-3.1,0-4.6,0c0-1.1,0-2.5,0-3.6c1.5,0,3.1,0,4.6,0C35.4,72.4,35.4,73.7,35.4,74.9z
		 M35.4,60.9c0-1.3,0-2.5,0-3.8c1.5,0,3.1,0,4.6,0c0,1.3,0,2.5,0,3.8C38.5,60.9,36.8,60.9,35.4,60.9z M42.3,98.2c-1.5,0-3.1,0-4.6,0
		c0-1.1,0-2.5,0-3.6c1.5,0,3.1,0,4.6,0C42.3,95.7,42.3,97,42.3,98.2z M46,52.3c0-0.3,0-0.7,0-1c0-1.3,0-2.5,0-3.8c0-0.3,0-0.7,0-1
		c0-1.3,0-2.5,0-3.8c0-0.3,0-0.7,0-1c0-1.3,0-2.5,0-3.8c0-0.3,0-0.7,0-1c0-0.7,0-1.1,0-1.8c0.7,0,1.3,0,1.8,0c0.3,0,0.8,0,1.1,0
		c1.5,0,3.1-0.2,4.6-0.2c0.3,0,0.8,0,1.1,0c0.5,0,0.8,0,1.3,0c1.1,0,2.3-0.2,3.3-0.2c0.3,0,0.8,0,1.1,0c0.7,0,1.5,0,2,0
		c1,0,1.8,0.2,2.6,0.3c0.5,0.2,0.8,0.3,1.1,0.5c0.2,0,0.2,0.2,0.3,0.2c0.2,0.2,0.3,0.2,0.5,0.3c0.5,0.3,0.8,0.7,1,1
		c0.2,0.3,0.5,0.7,0.7,1c0.3,0.8,0.5,1.6,0.5,2.8c0,0.3,0,0.7,0,1l0,0c0,1.5-0.2,2.8-0.7,3.9c-0.2,0.3-0.3,0.8-0.5,1.1
		c0,0,0,0.2-0.2,0.2c-0.5,0.8-1,1.5-1.8,2.1c-0.3,0.3-0.8,0.7-1.1,1c-0.2,0.2-0.3,0.2-0.3,0.3c-0.3,0.2-0.7,0.3-1,0.5
		c-1.1,0.5-2.5,1-3.9,1.1c-0.2,0-0.3,0-0.3,0c-0.3,0-0.5,0-0.8,0.2c-1.1,0.2-2.5,0.2-3.6,0.3c-0.3,0-0.8,0-1.1,0c-0.7,0-1.3,0-2,0.2
		c-0.8,0-1.8,0-2.6,0.2c-0.3,0-0.8,0-1.1,0c-0.7,0-1.3,0-1.8,0C46,52.8,46,52.7,46,52.3z M53.9,89.5c-1.5-0.2-3.1-0.2-4.6-0.2
		c0-1.3,0-2.5,0-3.8c1.5,0,3.1,0.2,4.6,0.2C53.9,87,53.9,88.2,53.9,89.5z M65.4,90.3c-1.5-0.2-3.1-0.3-4.6-0.3c0-1.3,0-2.5,0-3.8
		c1.5,0.2,3.1,0.2,4.6,0.3C65.4,87.7,65.4,89,65.4,90.3z M70.8,80.3c-0.2,0.3-0.5,0.7-0.8,1s-0.8,0.7-1.5,1l-0.2,0.2
		c-0.7,0.3-1.3,0.5-2.1,0.7c-0.3,0-0.8,0.2-1.1,0.2c-1.3,0.2-2.8,0.3-4.6,0.3c-0.3,0-0.8,0-1.1,0c-0.8,0-1.8,0-2.8-0.2
		c-0.7,0-1.1,0-1.8-0.2c-0.3,0-0.8,0-1.1,0c-1.1,0-2.3-0.2-3.4-0.2c-0.3,0-0.8,0-1.1,0s-0.8,0-1.1,0c-0.7,0-1.3,0-1.8,0
		c0-0.7,0-1.3,0-2c0-0.3,0-0.7,0-1c0-1.3,0-2.5,0-3.8c0-0.3,0-0.7,0-1c0-1.3,0-2.5,0-3.8c0-0.3,0-0.7,0-1c0-1.3,0-2.5,0-3.8
		c0-0.3,0-0.7,0-1c0-0.2,0-0.3,0-0.5c0.7,0,1.3,0,1.8,0c0.3,0,0.8,0,1.1,0c0.7,0,1.1,0,1.8,0c0.8,0,1.8,0,2.8,0c0.3,0,0.8,0,1.1,0
		c1.6,0,3.3,0.2,4.6,0.3c0.5,0,0.8,0,1.1,0.2c0.2,0,0.3,0,0.3,0c0.7,0,1.1,0.2,1.8,0.3c1.5,0.3,2.8,0.7,3.9,1.1c0.2,0,0.2,0,0.3,0.2
		c1,0.5,2,1.1,2.6,1.8c0.3,0.3,0.7,0.8,1,1.3c0,0.2,0.2,0.2,0.2,0.3c0.7,1.3,1.1,3,1,5.1C72,77.5,71.5,79.1,70.8,80.3z M87.9,83.6
		c-1.5-0.2-3-0.3-4.4-0.5c0-1.5,0-3,0-4.3c1.5,0.2,3,0.3,4.4,0.5C87.9,80.6,87.9,82.1,87.9,83.6z"/>
</g>
</svg>
