<?xml version="1.0" ?><!DOCTYPE svg  PUBLIC '-//W3C//DTD SVG 1.1//EN'  'http://www.w3.org/Graphics/SVG/1.1/DTD/svg11.dtd'><svg enable-background="new 0 0 48 48" height="48px" version="1.1" viewBox="0 0 48 48" width="48px" xml:space="preserve" xmlns="http://www.w3.org/2000/svg" xmlns:xlink="http://www.w3.org/1999/xlink"><g id="Expanded"><g><g><path d="M14.101,42.314c-1.87,0-3.628-0.729-4.95-2.051L7.736,38.85c-2.729-2.729-2.729-7.171,0-9.899l9.192-9.192     c1.322-1.322,3.08-2.051,4.95-2.051s3.628,0.729,4.949,2.051l1.414,1.414c0.391,0.391,0.391,1.023,0,1.414s-1.023,0.391-1.414,0     l-1.414-1.414c-0.944-0.944-2.2-1.465-3.535-1.465c-1.336,0-2.592,0.521-3.536,1.465L9.15,30.364     c-1.949,1.949-1.949,5.121,0,7.071l1.414,1.414c0.944,0.944,2.2,1.465,3.536,1.465c1.335,0,2.591-0.521,3.535-1.465L24,32.485     c0.391-0.391,1.023-0.391,1.414,0s0.391,1.023,0,1.414l-6.364,6.364C17.729,41.586,15.971,42.314,14.101,42.314z"/></g><g><path d="M26.121,30.293c-1.869,0-3.628-0.729-4.949-2.051c-0.391-0.391-0.391-1.023,0-1.414s1.023-0.391,1.414,0     c0.944,0.944,2.2,1.465,3.535,1.465c1.336,0,2.592-0.521,3.536-1.465l9.192-9.192c1.949-1.949,1.949-5.121,0-7.07L37.436,9.15     c-1.949-1.949-5.122-1.949-7.071,0L24,15.515c-0.391,0.391-1.023,0.391-1.414,0s-0.391-1.023,0-1.414l6.364-6.364     c2.729-2.729,7.17-2.729,9.899,0l1.414,1.415c2.729,2.729,2.729,7.17,0,9.898l-9.192,9.192     C29.75,29.564,27.991,30.293,26.121,30.293z"/></g></g></g></svg>